<svg width="56" height="52" viewBox="0 0 56 52" fill="none" xmlns="http://www.w3.org/2000/svg">
<path id="Vector" d="M0 27.434L27.0781 22.5491V15.3336L4.96251 20.5541C4.68792 20.6194 4.40348 20.5635 4.17791 20.3957C3.96215 20.2278 3.82483 19.9762 3.82483 19.7151V14.9701C3.82483 14.5786 4.09942 14.2336 4.49172 14.1311L27.0781 8.01566V0.837341L0 9.67491V27.434ZM28.9121 51.5975H55.9902V45.855L28.9121 44.3448V51.5975ZM0 51.5975H27.0781V44.3448L4.80558 45.5939C4.5506 45.6126 4.30543 45.5194 4.11909 45.3516C3.92294 45.1838 3.82489 44.9507 3.82489 44.7177V39.9726C3.82489 39.5251 4.18777 39.1429 4.65851 39.0963L27.0782 37.0733V29.8299L0 33.7825V51.5975ZM28.9121 22.5491L51.4102 26.6137C51.8417 26.6975 52.1654 27.0518 52.1654 27.4713V32.2164C52.1654 32.468 52.0476 32.7105 51.8515 32.8782C51.6554 33.046 51.3808 33.1206 51.1159 33.074L28.9219 29.8298V37.0732L56 39.5157V21.7287L28.9219 15.3335V22.549L28.9121 22.5491ZM28.9121 0.846661V8.02487L55.9902 15.3523V9.6936L28.9121 0.846661Z" fill="white"/>
</svg>
