<svg width="200" height="36" viewBox="0 0 200 36" fill="none" xmlns="http://www.w3.org/2000/svg">
<g id="Moseybank logo 1" clip-path="url(#clip0_5_4445)">
<g id="c">
<path id="Vector" d="M66.3784 9.7832V29.1022H62.8289V15.8238L56.4453 25.5106H55.014L48.6306 15.8238V29.1022H45.1096V9.7832H48.6306L55.7297 20.4495L62.8289 9.7832H66.3784Z" fill="#10141D"/>
<path id="Vector_2" d="M68.8135 22.2182C68.8135 18.2727 72.0481 15.062 76.5996 15.062C81.1225 15.062 84.3285 18.2727 84.3285 22.2182C84.3285 26.1638 81.1225 29.3743 76.5996 29.3743C72.0481 29.3743 68.8135 26.1636 68.8135 22.2182ZM80.8075 22.2182C80.8075 20.0413 79.0614 18.2182 76.5995 18.2182C74.1092 18.2182 72.3344 20.0414 72.3344 22.2182C72.3344 24.3951 74.1092 26.2181 76.5995 26.2181C79.0614 26.2181 80.8075 24.3949 80.8075 22.2182Z" fill="#10141D"/>
<path id="Vector_3" d="M89.3833 24.9392C89.5838 25.9187 90.7002 26.5718 92.4176 26.5718C93.62 26.5718 94.7077 26.1636 94.7077 25.3202C94.7077 24.2317 93.5627 24.014 90.6428 23.116C88.181 22.4086 86.3203 21.2658 86.3203 19.0346C86.3203 16.5585 88.9252 15.062 91.6733 15.062C95.2516 15.062 97.3984 16.9667 97.4844 19.2794H93.9634C93.8775 18.2727 92.7324 17.8374 91.7879 17.8374C90.9003 17.8374 89.8412 18.2455 89.8412 19.0346C89.8412 19.9054 90.8719 20.0958 93.9347 21.1026C97.1407 22.1365 98.2571 23.633 98.2571 25.4017C98.2571 27.9595 95.6237 29.3743 92.3317 29.3743C88.6677 29.3743 86.0627 27.9051 85.8623 24.9392H89.3833Z" fill="#10141D"/>
<path id="Vector_4" d="M114.258 23.2522H103.295C103.38 24.9392 104.726 26.4084 107.274 26.4084C109.106 26.4084 110.279 25.4834 110.852 24.5309L113.943 24.8575C113.514 26.7351 111.252 29.3743 107.245 29.3743C102.779 29.3743 99.7737 26.1636 99.7737 22.1365C99.7737 18.2999 102.636 15.062 107.016 15.062C111.482 15.062 114.258 18.4359 114.258 22.3815L114.258 23.2522ZM103.295 20.9393H110.737C110.623 19.4156 109.22 18.0279 107.016 18.0279C104.869 18.0279 103.38 19.3611 103.295 20.9393Z" fill="#10141D"/>
<path id="Vector_5" d="M118.434 15.334L122.699 24.9391L126.936 15.334H130.715L121.726 35.3605H118.005L120.81 29.075L114.656 15.334L118.434 15.334Z" fill="#10141D"/>
<path id="Vector_6" d="M141.008 29.3743C138.517 29.3743 136.399 28.1228 135.626 26.3541L135.454 29.1023H132.105V8.69482H135.626V18.0822C136.399 16.3136 138.517 15.062 141.008 15.062C145.158 15.062 148.021 18.2727 148.021 22.2182C148.021 26.1638 145.158 29.3743 141.008 29.3743ZM140.235 18.2182C137.773 18.2182 136.026 20.0414 136.026 22.2182C136.026 24.3951 137.773 26.2181 140.235 26.2181C142.697 26.2181 144.5 24.3949 144.5 22.2182C144.5 20.0415 142.696 18.2182 140.235 18.2182Z" fill="#10141D"/>
<path id="Vector_7" d="M156.782 15.062C159.474 15.062 161.42 16.504 162.164 18.2455L162.365 15.334H165.714V29.1023H162.365L162.164 26.1636C161.42 27.9323 159.474 29.3743 156.782 29.3743C152.632 29.3743 149.798 26.1636 149.798 22.2183C149.798 18.2729 152.632 15.062 156.782 15.062ZM157.584 26.2181C160.046 26.2181 161.792 24.3949 161.792 22.2182C161.792 20.0415 160.046 18.2182 157.584 18.2182C155.094 18.2182 153.319 20.0414 153.319 22.2182C153.319 24.3951 155.094 26.2181 157.584 26.2181Z" fill="#10141D"/>
<path id="Vector_8" d="M182.625 20.9664V29.1021H179.104V22.5173C179.104 19.3064 177.873 18.218 175.927 18.218C173.465 18.218 172.005 19.9867 171.919 22.218V29.102H168.398V15.3338H171.719L171.89 17.3745C173.293 16.0413 175.125 15.0618 177.301 15.0618C180.793 15.0618 182.625 17.2113 182.625 20.9664Z" fill="#10141D"/>
<path id="Vector_9" d="M193.416 21.3203L200 29.1023H195.62L190.925 23.5787L188.75 25.5377V29.1023H185.229V8.69482H188.75V21.0481L195.076 15.3341H200L193.416 21.3203Z" fill="#10141D"/>
<path id="Vector_10" d="M0 17.304L17.5896 14.1308V9.44372L3.22359 12.8349C3.04522 12.8773 2.86045 12.841 2.71393 12.732C2.57377 12.623 2.48457 12.4595 2.48457 12.2899V9.20758C2.48457 8.95324 2.66294 8.72917 2.91777 8.66258L17.5896 4.69006V0.0270996L0 5.76789V17.304ZM18.781 33.0004H36.3706V29.2701L18.781 28.289V33.0004ZM0 33.0004H17.5896V28.289L3.12165 29.1005C2.95602 29.1126 2.79676 29.0521 2.67571 28.9431C2.5483 28.834 2.48461 28.6827 2.48461 28.5313V25.4489C2.48461 25.1583 2.72033 24.91 3.02612 24.8797L17.5897 23.5656V18.8603L0 21.4279V33.0004ZM18.781 14.1308L33.3955 16.7711C33.6758 16.8256 33.8861 17.0557 33.8861 17.3282V20.4106C33.8861 20.5741 33.8096 20.7315 33.6822 20.8405C33.5548 20.9495 33.3764 20.9979 33.2043 20.9677L18.7873 18.8603V23.5655L36.377 25.1522V13.5979L18.7873 9.44366V14.1308L18.781 14.1308ZM18.781 0.0331537V4.69604L36.3706 9.45583V5.78003L18.781 0.0331537Z" fill="#10141D"/>
</g>
</g>
<defs>
<clipPath id="clip0_5_4445">
<rect width="200" height="36" fill="white"/>
</clipPath>
</defs>
</svg>
