<svg width="200" height="36" viewBox="0 0 200 36" fill="none" xmlns="http://www.w3.org/2000/svg">
<g id="c">
<path id="Vector" d="M66.3781 10.1055V29.4245H62.8287V16.146L56.445 25.8329H55.0138L48.6303 16.146V29.4245H45.1094V10.1055H48.6303L55.7294 20.7718L62.8287 10.1055H66.3781Z" fill="white"/>
<path id="Vector_2" d="M68.8135 22.5405C68.8135 18.5949 72.0481 15.3843 76.5996 15.3843C81.1225 15.3843 84.3285 18.5949 84.3285 22.5405C84.3285 26.486 81.1225 29.6965 76.5996 29.6965C72.0481 29.6965 68.8135 26.4859 68.8135 22.5405ZM80.8075 22.5405C80.8075 20.3636 79.0614 18.5405 76.5995 18.5405C74.1092 18.5405 72.3344 20.3636 72.3344 22.5405C72.3344 24.7173 74.1092 26.5404 76.5995 26.5404C79.0614 26.5404 80.8075 24.7172 80.8075 22.5405Z" fill="white"/>
<path id="Vector_3" d="M89.3833 25.2615C89.5838 26.241 90.7002 26.8941 92.4176 26.8941C93.62 26.8941 94.7077 26.4859 94.7077 25.6424C94.7077 24.554 93.5627 24.3363 90.6428 23.4383C88.181 22.7308 86.3203 21.5881 86.3203 19.3569C86.3203 16.8808 88.9252 15.3843 91.6733 15.3843C95.2516 15.3843 97.3984 17.289 97.4844 19.6017H93.9634C93.8775 18.5949 92.7324 18.1597 91.7879 18.1597C90.9003 18.1597 89.8412 18.5677 89.8412 19.3569C89.8412 20.2276 90.8719 20.4181 93.9347 21.4248C97.1407 22.4588 98.2571 23.9553 98.2571 25.7239C98.2571 28.2818 95.6237 29.6966 92.3317 29.6966C88.6677 29.6966 86.0627 28.2273 85.8623 25.2615H89.3833Z" fill="white"/>
<path id="Vector_4" d="M114.258 23.5744H103.295C103.381 25.2614 104.726 26.7307 107.274 26.7307C109.106 26.7307 110.28 25.8056 110.852 24.8532L113.944 25.1797C113.514 27.0573 111.253 29.6966 107.245 29.6966C102.78 29.6966 99.7739 26.4859 99.7739 22.4588C99.7739 18.6222 102.636 15.3843 107.016 15.3843C111.482 15.3843 114.258 18.7582 114.258 22.7037L114.258 23.5744ZM103.295 21.2616H110.738C110.623 19.7378 109.22 18.3501 107.016 18.3501C104.869 18.3501 103.381 19.6833 103.295 21.2616Z" fill="white"/>
<path id="Vector_5" d="M118.434 15.6563L122.699 25.2614L126.936 15.6563H130.714L121.726 35.6828H118.005L120.81 29.3972L114.655 15.6562L118.434 15.6563Z" fill="white"/>
<path id="Vector_6" d="M141.008 29.6966C138.517 29.6966 136.399 28.445 135.626 26.6764L135.454 29.4245H132.105V9.01709H135.626V18.4045C136.399 16.6358 138.517 15.3843 141.008 15.3843C145.159 15.3843 148.021 18.595 148.021 22.5405C148.021 26.4861 145.159 29.6966 141.008 29.6966ZM140.235 18.5405C137.773 18.5405 136.027 20.3636 136.027 22.5405C136.027 24.7173 137.773 26.5403 140.235 26.5403C142.697 26.5403 144.5 24.7172 144.5 22.5405C144.5 20.3638 142.697 18.5405 140.235 18.5405Z" fill="white"/>
<path id="Vector_7" d="M156.783 15.3843C159.474 15.3843 161.42 16.8263 162.164 18.5677L162.365 15.6563H165.714V29.4245H162.365L162.164 26.4859C161.42 28.2546 159.474 29.6966 156.783 29.6966C152.632 29.6966 149.798 26.4859 149.798 22.5405C149.798 18.5951 152.632 15.3843 156.783 15.3843ZM157.584 26.5404C160.046 26.5404 161.792 24.7172 161.792 22.5405C161.792 20.3638 160.046 18.5405 157.584 18.5405C155.094 18.5405 153.319 20.3636 153.319 22.5405C153.319 24.7173 155.094 26.5404 157.584 26.5404Z" fill="white"/>
<path id="Vector_8" d="M182.625 21.2886V29.4243H179.104V22.8395C179.104 19.6287 177.873 18.5403 175.927 18.5403C173.465 18.5403 172.005 20.3089 171.919 22.5403V29.4243H168.398V15.6561H171.719L171.89 17.6968C173.293 16.3635 175.125 15.384 177.301 15.384C180.793 15.384 182.625 17.5335 182.625 21.2886Z" fill="white"/>
<path id="Vector_9" d="M193.416 21.6426L200 29.4246H195.62L190.925 23.901L188.75 25.86V29.4246H185.229V9.01709H188.75V21.3704L195.076 15.6563H200L193.416 21.6426Z" fill="white"/>
<path id="Vector_10" d="M0 17.6263L17.5896 14.4531V9.76599L3.22359 13.1572C3.04522 13.1996 2.86045 13.1632 2.71393 13.0542C2.57377 12.9452 2.48457 12.7817 2.48457 12.6122V9.52985C2.48457 9.27551 2.66294 9.05144 2.91777 8.98484L17.5896 5.01232V0.349365L0 6.09015V17.6263ZM18.781 33.3226H36.3706V29.5923L18.781 28.6113V33.3226ZM0 33.3226H17.5896V28.6113L3.12165 29.4228C2.95602 29.4349 2.79676 29.3743 2.67571 29.2653C2.5483 29.1563 2.48461 29.0049 2.48461 28.8535V25.7712C2.48461 25.4805 2.72033 25.2323 3.02612 25.202L17.5897 23.8879V19.1826L0 21.7502V33.3226ZM18.781 14.4531L33.3955 17.0934C33.6758 17.1479 33.8861 17.378 33.8861 17.6505V20.7328C33.8861 20.8963 33.8096 21.0538 33.6822 21.1628C33.5548 21.2718 33.3764 21.3202 33.2043 21.2899L18.7873 19.1825V23.8878L36.377 25.4744V13.9201L18.7873 9.76592V14.453L18.781 14.4531ZM18.781 0.355419V5.01831L36.3706 9.7781V6.10229L18.781 0.355419Z" fill="white"/>
</g>
</svg>
