<svg width="48" height="49" viewBox="0 0 48 49" fill="none" xmlns="http://www.w3.org/2000/svg">
<g clip-path="url(#clip0_52_5834)">
<path d="M7.5 27.8779C7.5 26.2866 8.13214 24.7605 9.25736 23.6353C10.3826 22.5101 11.9087 21.8779 13.5 21.8779H34.5C36.0913 21.8779 37.6174 22.5101 38.7426 23.6353C39.8679 24.7605 40.5 26.2866 40.5 27.8779V42.8779C40.5 44.4692 39.8679 45.9954 38.7426 47.1206C37.6174 48.2458 36.0913 48.8779 34.5 48.8779H13.5C11.9087 48.8779 10.3826 48.2458 9.25736 47.1206C8.13214 45.9954 7.5 44.4692 7.5 42.8779V27.8779Z" fill="#10141D"/>
<path fill-rule="evenodd" clip-rule="evenodd" d="M13.5 12.8779C13.5 10.0932 14.6062 7.42244 16.5754 5.45331C18.5445 3.48418 21.2152 2.37793 24 2.37793C26.7848 2.37793 29.4555 3.48418 31.4246 5.45331C33.3938 7.42244 34.5 10.0932 34.5 12.8779V21.8779H31.5V12.8779C31.5 10.8888 30.7098 8.98115 29.3033 7.57463C27.8968 6.16811 25.9891 5.37793 24 5.37793C22.0109 5.37793 20.1032 6.16811 18.6967 7.57463C17.2902 8.98115 16.5 10.8888 16.5 12.8779V21.8779H13.5V12.8779Z" fill="#10141D"/>
</g>
<defs>
<clipPath id="clip0_52_5834">
<rect width="48" height="48" fill="white" transform="translate(0 0.87793)"/>
</clipPath>
</defs>
</svg>
