<svg width="48" height="49" viewBox="0 0 48 49" fill="none" xmlns="http://www.w3.org/2000/svg">
<path fill-rule="evenodd" clip-rule="evenodd" d="M24.0029 2.37793C22.0169 2.37793 18.6929 3.12493 15.5639 3.95293C12.773 4.70228 10.0002 5.5175 7.24787 6.39793C6.46208 6.64541 5.76244 7.11037 5.22992 7.73897C4.69741 8.36758 4.3538 9.13414 4.23887 9.94993C2.51987 22.5409 6.50687 31.8709 11.3429 38.0449C13.4015 40.6943 15.8457 43.0201 18.5939 44.9449C19.7069 45.7129 20.7389 46.2979 21.6149 46.7029C22.4249 47.0749 23.2889 47.3779 24.0029 47.3779C24.7169 47.3779 25.5839 47.0749 26.3909 46.7029C27.2669 46.2979 28.2989 45.7129 29.4119 44.9449C32.1611 43.0204 34.6063 40.6946 36.6659 38.0449C41.4989 31.8709 45.4859 22.5409 43.7669 9.94993C43.6519 9.13414 43.3083 8.36758 42.7758 7.73897C42.2433 7.11037 41.5437 6.64541 40.7579 6.39793C38.0055 5.51748 35.2328 4.70225 32.4419 3.95293C29.3129 3.12493 25.9919 2.37793 24.0029 2.37793ZM25.5029 24.6229C26.5037 24.2691 27.3472 23.5728 27.8843 22.6572C28.4214 21.7416 28.6176 20.6656 28.4381 19.6193C28.2586 18.5731 27.715 17.624 26.9034 16.9398C26.0918 16.2556 25.0644 15.8803 24.0029 15.8803C22.9413 15.8803 21.914 16.2556 21.1024 16.9398C20.2908 17.624 19.7472 18.5731 19.5677 19.6193C19.3882 20.6656 19.5843 21.7416 20.1214 22.6572C20.6585 23.5728 21.5021 24.2691 22.5029 24.6229L21.3479 30.5929C21.3058 30.8101 21.3124 31.0338 21.3669 31.2481C21.4215 31.4625 21.5228 31.6621 21.6636 31.8326C21.8044 32.0032 21.9811 32.1406 22.1812 32.2348C22.3813 32.3291 22.5997 32.378 22.8209 32.3779H25.1849C25.4058 32.3775 25.6239 32.3284 25.8236 32.2339C26.0233 32.1394 26.1997 32.002 26.3401 31.8315C26.4805 31.661 26.5816 31.4615 26.636 31.2474C26.6904 31.0333 26.6968 30.8098 26.6549 30.5929L25.5029 24.6229Z" fill="#10141D"/>
</svg>
